0
SECTION
2
HEADER
9
$INSUNITS
70
5
9
$ACADVER
1
AC1014
9
$HANDSEED
5
FFFF
0
ENDSEC
0
SECTION
2
TABLES
0
TABLE
2
VPORT
5
8
100
AcDbSymbolTable
0
ENDTAB
0
TABLE
2
LTYPE
5
5
100
AcDbSymbolTable
0
LTYPE
5
14
100
AcDbSymbolTableRecord
100
AcDbLinetypeTableRecord
2
BYBLOCK
70
0
0
LTYPE
5
15
100
AcDbSymbolTableRecord
100
AcDbLinetypeTableRecord
2
BYLAYER
70
0
0
ENDTAB
0
TABLE
2
LAYER
5
2
100
AcDbSymbolTable
70
2
0
LAYER
5
50
100
AcDbSymbolTableRecord
100
AcDbLayerTableRecord
2
0
70
0
6
CONTINUOUS
0
ENDTAB
0
TABLE
2
STYLE
5
3
100
AcDbSymbolTable
70
1
0
STYLE
5
11
100
AcDbSymbolTableRecord
100
AcDbTextStyleTableRecord
2
STANDARD
70
0
0
ENDTAB
0
TABLE
2
VIEW
5
6
100
AcDbSymbolTable
70
0
0
ENDTAB
0
TABLE
2
UCS
5
7
100
AcDbSymbolTable
70
0
0
ENDTAB
0
TABLE
2
APPID
5
9
100
AcDbSymbolTable
70
2
0
APPID
5
12
100
AcDbSymbolTableRecord
100
AcDbRegAppTableRecord
2
ACAD
70
0
0
ENDTAB
0
TABLE
2
DIMSTYLE
5
A
100
AcDbSymbolTable
70
1
0
ENDTAB
0
TABLE
2
BLOCK_RECORD
5
1
100
AcDbSymbolTable
70
1
0
BLOCK_RECORD
5
1F
100
AcDbSymbolTableRecord
100
AcDbBlockTableRecord
2
*MODEL_SPACE
0
BLOCK_RECORD
5
1B
100
AcDbSymbolTableRecord
100
AcDbBlockTableRecord
2
*PAPER_SPACE
0
ENDTAB
0
ENDSEC
0
SECTION
2
BLOCKS
0
BLOCK
5
20
100
AcDbEntity
100
AcDbBlockBegin
2
*MODEL_SPACE
0
ENDBLK
5
21
100
AcDbEntity
100
AcDbBlockEnd
0
BLOCK
5
1C
100
AcDbEntity
100
AcDbBlockBegin
2
*PAPER_SPACE
0
ENDBLK
5
1D
100
AcDbEntity
100
AcDbBlockEnd
0
ENDSEC
0
SECTION
2
ENTITIES
0
LWPOLYLINE
5
100
100
AcDbEntity
8
0
100
AcDbPolyline
90
144
70
1
43
0.0
10
-13.067718505859375
20
16.185401916503906
10
-13.065814971923828
20
16.272642135620117
10
-13.067718505859375
20
16.359880447387695
10
-13.07342529296875
20
16.446950912475586
10
-13.082924842834473
20
16.533693313598633
10
-13.096199035644531
20
16.619937896728516
10
-13.113223075866699
20
16.705520629882812
10
-13.133963584899902
20
16.790277481079102
10
-13.158380508422852
20
16.874052047729492
10
-13.186429977416992
20
16.956682205200195
10
-13.218056678771973
20
17.038007736206055
10
-13.253199577331543
20
17.117877960205078
10
-13.291793823242188
20
17.196138381958008
10
-13.33376407623291
20
17.272642135620117
10
-13.379033088684082
20
17.347240447998047
10
-13.427511215209961
20
17.419794082641602
10
-13.479108810424805
20
17.490163803100586
10
-13.533726692199707
20
17.558216094970703
10
-13.59126091003418
20
17.623821258544922
10
-13.651601791381836
20
17.686855316162109
10
-13.714634895324707
20
17.747196197509766
10
-13.780240058898926
20
17.804731369018555
10
-13.848292350769043
20
17.859346389770508
10
-13.918662071228027
20
17.910943984985352
10
-13.991216659545898
20
17.959423065185547
10
-14.065814971923828
20
18.004692077636719
10
-14.142317771911621
20
18.046661376953125
10
-14.220578193664551
20
18.085256576538086
10
-14.300447463989258
20
18.120401382446289
10
-14.38177490234375
20
18.152027130126953
10
-14.46440315246582
20
18.180074691772461
10
-14.548176765441895
20
18.204492568969727
10
-14.632935523986816
20
18.22523307800293
10
-14.718518257141113
20
18.242256164550781
10
-14.804762840270996
20
18.255529403686523
10
-14.89150333404541
20
18.265031814575195
10
-14.97857666015625
20
18.27073860168457
10
-15.065814971923828
20
18.272640228271484
10
-15.153054237365723
20
18.27073860168457
10
-15.240126609802246
20
18.265031814575195
10
-15.326868057250977
20
18.255529403686523
10
-15.413110733032227
20
18.242256164550781
10
-15.49869441986084
20
18.22523307800293
10
-15.583454132080078
20
18.204492568969727
10
-15.66722583770752
20
18.180074691772461
10
-15.749855041503906
20
18.152027130126953
10
-15.831181526184082
20
18.120401382446289
10
-15.911051750183105
20
18.085256576538086
10
-15.989313125610352
20
18.046661376953125
10
-16.065814971923828
20
18.004692077636719
10
-16.140415191650391
20
17.959423065185547
10
-16.212968826293945
20
17.910943984985352
10
-16.28333854675293
20
17.859346389770508
10
-16.351390838623047
20
17.804731369018555
10
-16.416994094848633
20
17.747196197509766
10
-16.48002815246582
20
17.686855316162109
10
-16.540369033813477
20
17.623821258544922
10
-16.597904205322266
20
17.558216094970703
10
-16.652523040771484
20
17.490163803100586
10
-16.704120635986328
20
17.419794082641602
10
-16.752599716186523
20
17.347240447998047
10
-16.797866821289062
20
17.272642135620117
10
-16.839838027954102
20
17.196138381958008
10
-16.878429412841797
20
17.117877960205078
10
-16.91357421875
20
17.038007736206055
10
-16.945199966430664
20
16.956682205200195
10
-16.973249435424805
20
16.874052047729492
10
-16.99766731262207
20
16.790277481079102
10
-17.018407821655273
20
16.705520629882812
10
-17.035430908203125
20
16.619937896728516
10
-17.0487060546875
20
16.533693313598633
10
-17.058204650878906
20
16.446950912475586
10
-17.063911437988281
20
16.359880447387695
10
-17.065814971923828
20
16.272642135620117
10
-17.063911437988281
20
16.185401916503906
10
-17.058204650878906
20
16.098329544067383
10
-17.0487060546875
20
16.011589050292969
10
-17.035430908203125
20
15.925344467163086
10
-17.018407821655273
20
15.839760780334473
10
-16.99766731262207
20
15.755002975463867
10
-16.973249435424805
20
15.671229362487793
10
-16.945199966430664
20
15.588601112365723
10
-16.91357421875
20
15.507274627685547
10
-16.878429412841797
20
15.42740535736084
10
-16.839838027954102
20
15.349143981933594
10
-16.797866821289062
20
15.272641181945801
10
-16.752599716186523
20
15.198041915893555
10
-16.704120635986328
20
15.12548828125
10
-16.652523040771484
20
15.055118560791016
10
-16.597904205322266
20
14.987065315246582
10
-16.540369033813477
20
14.921460151672363
10
-16.48002815246582
20
14.858427047729492
10
-16.416994094848633
20
14.798086166381836
10
-16.351390838623047
20
14.740551948547363
10
-16.28333854675293
20
14.685934066772461
10
-16.212968826293945
20
14.634337425231934
10
-16.140415191650391
20
14.585858345031738
10
-16.065814971923828
20
14.540590286254883
10
-15.989313125610352
20
14.498619079589844
10
-15.911051750183105
20
14.460025787353516
10
-15.831181526184082
20
14.424881935119629
10
-15.749855041503906
20
14.393256187438965
10
-15.66722583770752
20
14.365207672119141
10
-15.583454132080078
20
14.340788841247559
10
-15.49869441986084
20
14.320049285888672
10
-15.413110733032227
20
14.30302619934082
10
-15.326868057250977
20
14.289752006530762
10
-15.240126609802246
20
14.280252456665039
10
-15.153054237365723
20
14.274544715881348
10
-15.065814971923828
20
14.272641181945801
10
-14.97857666015625
20
14.274544715881348
10
-14.89150333404541
20
14.280252456665039
10
-14.804762840270996
20
14.289752006530762
10
-14.718518257141113
20
14.30302619934082
10
-14.632935523986816
20
14.320049285888672
10
-14.548176765441895
20
14.340788841247559
10
-14.46440315246582
20
14.365207672119141
10
-14.38177490234375
20
14.393256187438965
10
-14.300447463989258
20
14.424881935119629
10
-14.220578193664551
20
14.460025787353516
10
-14.142317771911621
20
14.498619079589844
10
-14.065814971923828
20
14.540590286254883
10
-13.991216659545898
20
14.585858345031738
10
-13.918662071228027
20
14.634337425231934
10
-13.848292350769043
20
14.685934066772461
10
-13.780240058898926
20
14.740551948547363
10
-13.714634895324707
20
14.798086166381836
10
-13.651601791381836
20
14.858427047729492
10
-13.59126091003418
20
14.921460151672363
10
-13.533726692199707
20
14.987065315246582
10
-13.479108810424805
20
15.055118560791016
10
-13.427511215209961
20
15.12548828125
10
-13.379033088684082
20
15.198041915893555
10
-13.33376407623291
20
15.272641181945801
10
-13.291793823242188
20
15.349143981933594
10
-13.253199577331543
20
15.42740535736084
10
-13.218056678771973
20
15.507274627685547
10
-13.186429977416992
20
15.588601112365723
10
-13.158380508422852
20
15.671229362487793
10
-13.133963584899902
20
15.755002975463867
10
-13.113223075866699
20
15.839760780334473
10
-13.096199035644531
20
15.925344467163086
10
-13.082924842834473
20
16.011589050292969
10
-13.07342529296875
20
16.098329544067383
0
LWPOLYLINE
5
101
100
AcDbEntity
8
0
100
AcDbPolyline
90
319
70
1
43
0.0
10
-8.167210578918457
20
17.854530334472656
10
-8.1269845962524414
20
17.842201232910156
10
-8.0903511047363281
20
17.832529067993164
10
-8.0522861480712891
20
17.824132919311523
10
-8.0156068801879883
20
17.817649841308594
10
-7.978330135345459
20
17.812602996826172
10
-7.9382414817810059
20
17.808738708496094
10
-7.8922414779663086
20
17.805995941162109
10
-7.8159375190734863
20
17.80436897277832
10
-7.547907829284668
20
17.809499740600586
10
-4.1225070953369141
20
17.819561004638672
10
7.9926754174876866e-16
20
17.824680328369141
10
4.1225070953369132
20
17.819561004638672
10
7.547907829284668
20
17.809499740600586
10
7.8159375190734863
20
17.80436897277832
10
7.8922414779663086
20
17.805995941162109
10
7.9382414817810059
20
17.808738708496094
10
7.978330135345459
20
17.812602996826172
10
8.0156068801879883
20
17.817649841308594
10
8.0522861480712891
20
17.824132919311523
10
8.0903511047363281
20
17.832529067993164
10
8.1269845962524414
20
17.842201232910156
10
8.167210578918457
20
17.854530334472656
10
8.2140350341796875
20
17.870903015136719
10
8.2719135284423828
20
17.893669128417969
10
8.3547878265380859
20
17.930215835571289
10
8.4484386444091797
20
17.976102828979492
10
8.5628728866577148
20
18.037715911865234
10
8.6947021484375
20
18.115392684936523
10
8.8331432342529297
20
18.20442008972168
10
8.9511966705322266
20
18.286855697631836
10
9.0490789413452148
20
18.36070442199707
10
9.1322250366210938
20
18.428501129150391
10
9.2054977416992188
20
18.493158340454102
10
9.2724456787109375
20
18.557191848754883
10
9.3359479904174805
20
18.623170852661133
10
9.3985614776611328
20
18.694057464599609
10
9.4548234939575195
20
18.763324737548828
10
9.5132389068603516
20
18.841304779052734
10
9.5746889114379883
20
18.930299758911133
10
9.6203794479370117
20
19.001712799072266
10
9.670257568359375
20
19.086057662963867
10
9.7147502899169922
20
19.168418884277344
10
9.7542934417724609
20
19.248981475830078
10
9.7892732620239258
20
19.327932357788086
10
9.8200263977050781
20
19.405464172363281
10
9.8468456268310547
20
19.481769561767578
10
9.8699731826782227
20
19.557018280029297
10
9.889979362487793
20
19.632884979248047
10
9.9062118530273438
20
19.706335067749023
10
9.9208173751831055
20
19.787410736083984
10
9.9338407516479492
20
19.880205154418945
10
9.9448127746582031
20
19.988645553588867
10
9.9529705047607422
20
20.118431091308594
10
9.9572744369506836
20
20.296052932739258
10
9.950373649597168
20
20.660253524780273
10
9.9449806213378906
20
20.799999237060547
10
15.065814971923828
20
20.799999237060547
10
15.262871742248535
20
20.795707702636719
10
15.459555625915527
20
20.782844543457031
10
15.65549373626709
20
20.761434555053711
10
15.850311279296875
20
20.731513977050781
10
16.043643951416016
20
20.693141937255859
10
16.235124588012695
20
20.646390914916992
10
16.424385070800781
20
20.591352462768555
10
16.611074447631836
20
20.528125762939453
10
16.794832229614258
20
20.456832885742188
10
16.975315093994141
20
20.37761116027832
10
17.152177810668945
20
20.290609359741211
10
17.325084686279297
20
20.195991516113281
10
17.493711471557617
20
20.093936920166016
10
17.657733917236328
20
19.984638214111328
10
17.81684684753418
20
19.868305206298828
10
17.970743179321289
20
19.745157241821289
10
18.119134902954102
20
19.615427017211914
10
18.261737823486328
20
19.479360580444336
10
18.398284912109375
20
19.337217330932617
10
18.528512954711914
20
19.189264297485352
10
18.652181625366211
20
19.035783767700195
10
18.769050598144531
20
18.877065658569336
10
18.878900527954102
20
18.713411331176758
10
18.981523513793945
20
18.545129776000977
10
19.076723098754883
20
18.372543334960938
10
19.164323806762695
20
18.195974349975586
10
19.24415397644043
20
18.01576042175293
10
19.316064834594727
20
17.832242965698242
10
19.379919052124023
20
17.645771026611328
10
19.435598373413086
20
17.456693649291992
10
19.482992172241211
20
17.265373229980469
10
19.522016525268555
20
17.072170257568359
10
19.552593231201172
20
16.877452850341797
10
19.574666976928711
20
16.681591033935547
10
19.588191986083984
20
16.484951019287109
10
19.593147277832031
20
16.287910461425781
10
19.589523315429688
20
16.090839385986328
10
19.577322006225586
20
15.894115447998047
10
19.556570053100586
20
15.69810676574707
10
19.527309417724609
20
15.50318717956543
10
19.489587783813477
20
15.309725761413574
10
19.443483352661133
20
15.118090629577637
10
19.389083862304688
20
14.928642272949219
10
19.326488494873047
20
14.741743087768555
10
19.255817413330078
20
14.557744026184082
10
19.177204132080078
20
14.376996994018555
10
19.090797424316406
20
14.199841499328613
10
18.996761322021484
20
14.026616096496582
10
18.89527702331543
20
13.857646942138672
10
18.786533355712891
20
13.693255424499512
10
18.786533355712891
20
-11.575644493103027
10
18.893499374389648
20
-11.739121437072754
10
18.993312835693359
20
-11.907061576843262
10
19.085788726806641
20
-12.079151153564453
10
19.170753479003906
20
-12.255069732666016
10
19.248048782348633
20
-12.434491157531738
10
19.317533493041992
20
-12.61707878112793
10
19.379077911376953
20
-12.802495002746582
10
19.432563781738281
20
-12.990392684936523
10
19.47789192199707
20
-13.180423736572266
10
19.514982223510742
20
-13.372233390808105
10
19.543764114379883
20
-13.565464019775391
10
19.564180374145508
20
-13.759757041931152
10
19.576194763183594
20
-13.95474910736084
10
19.579788208007812
20
-14.150079727172852
10
19.574949264526367
20
-14.345381736755371
10
19.561691284179688
20
-14.540294647216797
10
19.540035247802734
20
-14.734452247619629
10
19.510025024414062
20
-14.927495956420898
10
19.471712112426758
20
-15.119065284729004
10
19.425172805786133
20
-15.308802604675293
10
19.370489120483398
20
-15.496356010437012
10
19.307765960693359
20
-15.681376457214355
10
19.237119674682617
20
-15.863517761230469
10
19.158679962158203
20
-16.042440414428711
10
19.072595596313477
20
-16.217815399169922
10
18.979024887084961
20
-16.389312744140625
10
18.878143310546875
20
-16.556612014770508
10
18.770135879516602
20
-16.719404220581055
10
18.655208587646484
20
-16.877384185791016
10
18.533571243286133
20
-17.030261993408203
10
18.405452728271484
20
-17.177745819091797
10
18.271089553833008
20
-17.31956672668457
10
18.130735397338867
20
-17.455459594726562
10
17.984647750854492
20
-17.585170745849609
10
17.833099365234375
20
-17.708457946777344
10
17.676374435424805
20
-17.825092315673828
10
17.514762878417969
20
-17.934858322143555
10
17.348567962646484
20
-18.037548065185547
10
17.178094863891602
20
-18.132972717285156
10
17.003664016723633
20
-18.220954895019531
10
16.825601577758789
20
-18.30133056640625
10
16.644237518310547
20
-18.37394905090332
10
16.459907531738281
20
-18.438674926757812
10
16.272960662841797
20
-18.495388031005859
10
16.083738327026367
20
-18.543983459472656
10
15.892595291137695
20
-18.584369659423828
10
15.699887275695801
20
-18.616474151611328
10
15.505975723266602
20
-18.640233993530273
10
14.761640548706055
20
-18.764154434204102
10
14.433835029602051
20
-18.831447601318359
10
14.185440063476562
20
-18.892045974731445
10
13.977643966674805
20
-18.951160430908203
10
13.794495582580566
20
-19.011081695556641
10
13.604401588439941
20
-19.081865310668945
10
13.411491394042969
20
-19.162385940551758
10
13.203207969665527
20
-19.258626937866211
10
12.974203109741211
20
-19.374782562255859
10
12.660717010498047
20
-19.549324035644531
10
12.227752685546875
20
-19.813819885253906
10
11.655238151550293
20
-20.194797515869141
10
11.187154769897461
20
-20.532346725463867
10
10.841492652893066
20
-20.799999237060547
10
-10.841492652893066
20
-20.799999237060547
10
-11.187154769897461
20
-20.532346725463867
10
-11.655238151550293
20
-20.194797515869141
10
-12.227752685546875
20
-19.813819885253906
10
-12.660717010498047
20
-19.549324035644531
10
-12.974203109741211
20
-19.374782562255859
10
-13.203207969665527
20
-19.258626937866211
10
-13.411491394042969
20
-19.162385940551758
10
-13.604401588439941
20
-19.081865310668945
10
-13.794495582580566
20
-19.011081695556641
10
-13.977643966674805
20
-18.951160430908203
10
-14.185440063476562
20
-18.892045974731445
10
-14.433835029602051
20
-18.831447601318359
10
-14.761640548706055
20
-18.764154434204102
10
-15.505975723266602
20
-18.640233993530273
10
-15.699887275695801
20
-18.616474151611328
10
-15.892595291137695
20
-18.584369659423828
10
-16.083738327026367
20
-18.543983459472656
10
-16.272960662841797
20
-18.495388031005859
10
-16.459907531738281
20
-18.438674926757812
10
-16.644237518310547
20
-18.37394905090332
10
-16.825601577758789
20
-18.30133056640625
10
-17.003664016723633
20
-18.220954895019531
10
-17.178094863891602
20
-18.132972717285156
10
-17.348567962646484
20
-18.037548065185547
10
-17.514762878417969
20
-17.934858322143555
10
-17.676374435424805
20
-17.825092315673828
10
-17.833099365234375
20
-17.708457946777344
10
-17.984647750854492
20
-17.585170745849609
10
-18.130735397338867
20
-17.455459594726562
10
-18.271089553833008
20
-17.31956672668457
10
-18.405452728271484
20
-17.177745819091797
10
-18.533571243286133
20
-17.030261993408203
10
-18.655208587646484
20
-16.877384185791016
10
-18.770135879516602
20
-16.719404220581055
10
-18.878143310546875
20
-16.556612014770508
10
-18.979024887084961
20
-16.389312744140625
10
-19.072595596313477
20
-16.217815399169922
10
-19.158679962158203
20
-16.042440414428711
10
-19.237119674682617
20
-15.863517761230469
10
-19.307765960693359
20
-15.681376457214355
10
-19.370489120483398
20
-15.496356010437012
10
-19.425172805786133
20
-15.308802604675293
10
-19.471712112426758
20
-15.119065284729004
10
-19.510025024414062
20
-14.927495956420898
10
-19.540035247802734
20
-14.734452247619629
10
-19.561691284179688
20
-14.540294647216797
10
-19.574949264526367
20
-14.345381736755371
10
-19.579788208007812
20
-14.150079727172852
10
-19.576194763183594
20
-13.95474910736084
10
-19.564180374145508
20
-13.759757041931152
10
-19.543764114379883
20
-13.565464019775391
10
-19.514982223510742
20
-13.372233390808105
10
-19.47789192199707
20
-13.180423736572266
10
-19.432563781738281
20
-12.990392684936523
10
-19.379077911376953
20
-12.802495002746582
10
-19.317533493041992
20
-12.61707878112793
10
-19.248048782348633
20
-12.434491157531738
10
-19.170753479003906
20
-12.255069732666016
10
-19.085788726806641
20
-12.079151153564453
10
-18.993312835693359
20
-11.907061576843262
10
-18.893499374389648
20
-11.739121437072754
10
-18.786533355712891
20
-11.575644493103027
10
-18.786533355712891
20
13.693255424499512
10
-18.89527702331543
20
13.857646942138672
10
-18.996761322021484
20
14.026616096496582
10
-19.090797424316406
20
14.199841499328613
10
-19.177204132080078
20
14.376996994018555
10
-19.255817413330078
20
14.557744026184082
10
-19.326488494873047
20
14.741743087768555
10
-19.389083862304688
20
14.928642272949219
10
-19.443483352661133
20
15.118090629577637
10
-19.489587783813477
20
15.309725761413574
10
-19.527309417724609
20
15.50318717956543
10
-19.556570053100586
20
15.69810676574707
10
-19.577322006225586
20
15.894115447998047
10
-19.589523315429688
20
16.090839385986328
10
-19.593147277832031
20
16.287910461425781
10
-19.588191986083984
20
16.484951019287109
10
-19.574666976928711
20
16.681591033935547
10
-19.552593231201172
20
16.877452850341797
10
-19.522016525268555
20
17.072170257568359
10
-19.482992172241211
20
17.265373229980469
10
-19.435598373413086
20
17.456693649291992
10
-19.379919052124023
20
17.645771026611328
10
-19.316064834594727
20
17.832242965698242
10
-19.24415397644043
20
18.01576042175293
10
-19.164323806762695
20
18.195974349975586
10
-19.076723098754883
20
18.372543334960938
10
-18.981523513793945
20
18.545129776000977
10
-18.878900527954102
20
18.713411331176758
10
-18.769050598144531
20
18.877065658569336
10
-18.652181625366211
20
19.035783767700195
10
-18.528512954711914
20
19.189264297485352
10
-18.398284912109375
20
19.337217330932617
10
-18.261737823486328
20
19.479360580444336
10
-18.119134902954102
20
19.615427017211914
10
-17.970743179321289
20
19.745157241821289
10
-17.81684684753418
20
19.868305206298828
10
-17.657733917236328
20
19.984638214111328
10
-17.493711471557617
20
20.093936920166016
10
-17.325084686279297
20
20.195991516113281
10
-17.152177810668945
20
20.290609359741211
10
-16.975315093994141
20
20.37761116027832
10
-16.794832229614258
20
20.456832885742188
10
-16.611074447631836
20
20.528125762939453
10
-16.424385070800781
20
20.591352462768555
10
-16.235124588012695
20
20.646390914916992
10
-16.043643951416016
20
20.693141937255859
10
-15.850311279296875
20
20.731513977050781
10
-15.65549373626709
20
20.761434555053711
10
-15.459555625915527
20
20.782844543457031
10
-15.262871742248535
20
20.795707702636719
10
-15.065814971923828
20
20.799999237060547
10
-9.9449806213378906
20
20.799999237060547
10
-9.950373649597168
20
20.660253524780273
10
-9.9572744369506836
20
20.296052932739258
10
-9.9529705047607422
20
20.118431091308594
10
-9.9448127746582031
20
19.988645553588867
10
-9.9338407516479492
20
19.880205154418945
10
-9.9208173751831055
20
19.787410736083984
10
-9.9062118530273438
20
19.706335067749023
10
-9.889979362487793
20
19.632884979248047
10
-9.8699731826782227
20
19.557018280029297
10
-9.8468456268310547
20
19.481769561767578
10
-9.8200263977050781
20
19.405464172363281
10
-9.7892732620239258
20
19.327932357788086
10
-9.7542934417724609
20
19.248981475830078
10
-9.7147502899169922
20
19.168418884277344
10
-9.670257568359375
20
19.086057662963867
10
-9.6203794479370117
20
19.001712799072266
10
-9.5746889114379883
20
18.930299758911133
10
-9.5132389068603516
20
18.841304779052734
10
-9.4548234939575195
20
18.763324737548828
10
-9.3985614776611328
20
18.694057464599609
10
-9.3359479904174805
20
18.623170852661133
10
-9.2724456787109375
20
18.557191848754883
10
-9.2054977416992188
20
18.493158340454102
10
-9.1322250366210938
20
18.428501129150391
10
-9.0490789413452148
20
18.36070442199707
10
-8.9511966705322266
20
18.286855697631836
10
-8.8331432342529297
20
18.20442008972168
10
-8.6947021484375
20
18.115392684936523
10
-8.5628728866577148
20
18.037715911865234
10
-8.4484386444091797
20
17.976102828979492
10
-8.3547878265380859
20
17.930215835571289
10
-8.2719135284423828
20
17.893669128417969
10
-8.2140350341796875
20
17.870903015136719
0
LWPOLYLINE
5
102
100
AcDbEntity
8
0
100
AcDbPolyline
90
144
70
1
43
0.0
10
13.065814971923828
20
16.272642135620117
10
13.067718505859375
20
16.359880447387695
10
13.07342529296875
20
16.446950912475586
10
13.082924842834473
20
16.533693313598633
10
13.096199035644531
20
16.619937896728516
10
13.113223075866699
20
16.705520629882812
10
13.133963584899902
20
16.790277481079102
10
13.158380508422852
20
16.874052047729492
10
13.186429977416992
20
16.956682205200195
10
13.218056678771973
20
17.038007736206055
10
13.253199577331543
20
17.117877960205078
10
13.291793823242188
20
17.196138381958008
10
13.33376407623291
20
17.272642135620117
10
13.379033088684082
20
17.347240447998047
10
13.427511215209961
20
17.419794082641602
10
13.479108810424805
20
17.490163803100586
10
13.533726692199707
20
17.558216094970703
10
13.59126091003418
20
17.623821258544922
10
13.651601791381836
20
17.686855316162109
10
13.714634895324707
20
17.747196197509766
10
13.780240058898926
20
17.804731369018555
10
13.848292350769043
20
17.859346389770508
10
13.918662071228027
20
17.910943984985352
10
13.991216659545898
20
17.959423065185547
10
14.065814971923828
20
18.004692077636719
10
14.142317771911621
20
18.046661376953125
10
14.220578193664551
20
18.085256576538086
10
14.300447463989258
20
18.120401382446289
10
14.38177490234375
20
18.152027130126953
10
14.46440315246582
20
18.180074691772461
10
14.548176765441895
20
18.204492568969727
10
14.632935523986816
20
18.22523307800293
10
14.718518257141113
20
18.242256164550781
10
14.804762840270996
20
18.255529403686523
10
14.89150333404541
20
18.265031814575195
10
14.97857666015625
20
18.27073860168457
10
15.065814971923828
20
18.272640228271484
10
15.153054237365723
20
18.27073860168457
10
15.240126609802246
20
18.265031814575195
10
15.326868057250977
20
18.255529403686523
10
15.413110733032227
20
18.242256164550781
10
15.49869441986084
20
18.22523307800293
10
15.583454132080078
20
18.204492568969727
10
15.66722583770752
20
18.180074691772461
10
15.749855041503906
20
18.152027130126953
10
15.831181526184082
20
18.120401382446289
10
15.911051750183105
20
18.085256576538086
10
15.989313125610352
20
18.046661376953125
10
16.065814971923828
20
18.004692077636719
10
16.140415191650391
20
17.959423065185547
10
16.212968826293945
20
17.910943984985352
10
16.28333854675293
20
17.859346389770508
10
16.351390838623047
20
17.804731369018555
10
16.416994094848633
20
17.747196197509766
10
16.48002815246582
20
17.686855316162109
10
16.540369033813477
20
17.623821258544922
10
16.597904205322266
20
17.558216094970703
10
16.652523040771484
20
17.490163803100586
10
16.704120635986328
20
17.419794082641602
10
16.752599716186523
20
17.347240447998047
10
16.797866821289062
20
17.272642135620117
10
16.839838027954102
20
17.196138381958008
10
16.878429412841797
20
17.117877960205078
10
16.91357421875
20
17.038007736206055
10
16.945199966430664
20
16.956682205200195
10
16.973249435424805
20
16.874052047729492
10
16.99766731262207
20
16.790277481079102
10
17.018407821655273
20
16.705520629882812
10
17.035430908203125
20
16.619937896728516
10
17.0487060546875
20
16.533693313598633
10
17.058204650878906
20
16.446950912475586
10
17.063911437988281
20
16.359880447387695
10
17.065814971923828
20
16.272642135620117
10
17.063911437988281
20
16.185401916503906
10
17.058204650878906
20
16.098329544067383
10
17.0487060546875
20
16.011589050292969
10
17.035430908203125
20
15.925344467163086
10
17.018407821655273
20
15.839760780334473
10
16.99766731262207
20
15.755002975463867
10
16.973249435424805
20
15.671229362487793
10
16.945199966430664
20
15.588601112365723
10
16.91357421875
20
15.507274627685547
10
16.878429412841797
20
15.42740535736084
10
16.839838027954102
20
15.349143981933594
10
16.797866821289062
20
15.272641181945801
10
16.752599716186523
20
15.198041915893555
10
16.704120635986328
20
15.12548828125
10
16.652523040771484
20
15.055118560791016
10
16.597904205322266
20
14.987065315246582
10
16.540369033813477
20
14.921460151672363
10
16.48002815246582
20
14.858427047729492
10
16.416994094848633
20
14.798086166381836
10
16.351390838623047
20
14.740551948547363
10
16.28333854675293
20
14.685934066772461
10
16.212968826293945
20
14.634337425231934
10
16.140415191650391
20
14.585858345031738
10
16.065814971923828
20
14.540590286254883
10
15.989313125610352
20
14.498619079589844
10
15.911051750183105
20
14.460025787353516
10
15.831181526184082
20
14.424881935119629
10
15.749855041503906
20
14.393256187438965
10
15.66722583770752
20
14.365207672119141
10
15.583454132080078
20
14.340788841247559
10
15.49869441986084
20
14.320049285888672
10
15.413110733032227
20
14.30302619934082
10
15.326868057250977
20
14.289752006530762
10
15.240126609802246
20
14.280252456665039
10
15.153054237365723
20
14.274544715881348
10
15.065814971923828
20
14.272641181945801
10
14.97857666015625
20
14.274544715881348
10
14.89150333404541
20
14.280252456665039
10
14.804762840270996
20
14.289752006530762
10
14.718518257141113
20
14.30302619934082
10
14.632935523986816
20
14.320049285888672
10
14.548176765441895
20
14.340788841247559
10
14.46440315246582
20
14.365207672119141
10
14.38177490234375
20
14.393256187438965
10
14.300447463989258
20
14.424881935119629
10
14.220578193664551
20
14.460025787353516
10
14.142317771911621
20
14.498619079589844
10
14.065814971923828
20
14.540590286254883
10
13.991216659545898
20
14.585858345031738
10
13.918662071228027
20
14.634337425231934
10
13.848292350769043
20
14.685934066772461
10
13.780240058898926
20
14.740551948547363
10
13.714634895324707
20
14.798086166381836
10
13.651601791381836
20
14.858427047729492
10
13.59126091003418
20
14.921460151672363
10
13.533726692199707
20
14.987065315246582
10
13.479108810424805
20
15.055118560791016
10
13.427511215209961
20
15.12548828125
10
13.379033088684082
20
15.198041915893555
10
13.33376407623291
20
15.272641181945801
10
13.291793823242188
20
15.349143981933594
10
13.253199577331543
20
15.42740535736084
10
13.218056678771973
20
15.507274627685547
10
13.186429977416992
20
15.588601112365723
10
13.158380508422852
20
15.671229362487793
10
13.133963584899902
20
15.755002975463867
10
13.113223075866699
20
15.839760780334473
10
13.096199035644531
20
15.925344467163086
10
13.082924842834473
20
16.011589050292969
10
13.07342529296875
20
16.098329544067383
10
13.067718505859375
20
16.185401916503906
0
LWPOLYLINE
5
103
100
AcDbEntity
8
0
100
AcDbPolyline
90
144
70
1
43
0.0
10
15.313504219055176
20
-12.15275764465332
10
15.399748802185059
20
-12.166031837463379
10
15.485331535339355
20
-12.18305492401123
10
15.570090293884277
20
-12.203795433044434
10
15.653863906860352
20
-12.228213310241699
10
15.736492156982422
20
-12.256261825561523
10
15.817819595336914
20
-12.287888526916504
10
15.897689819335938
20
-12.323032379150391
10
15.975948333740234
20
-12.361625671386719
10
16.052452087402344
20
-12.403595924377441
10
16.127052307128906
20
-12.448863983154297
10
16.199605941772461
20
-12.497343063354492
10
16.269973754882812
20
-12.548940658569336
10
16.338027954101562
20
-12.603558540344238
10
16.403633117675781
20
-12.661092758178711
10
16.466665267944336
20
-12.721434593200684
10
16.527006149291992
20
-12.784466743469238
10
16.584541320800781
20
-12.850071907043457
10
16.639158248901367
20
-12.918125152587891
10
16.690755844116211
20
-12.988494873046875
10
16.739234924316406
20
-13.06104850769043
10
16.784502029418945
20
-13.135647773742676
10
16.826473236083984
20
-13.212149620056152
10
16.865066528320312
20
-13.290410995483398
10
16.900211334228516
20
-13.370280265808105
10
16.93183708190918
20
-13.451606750488281
10
16.959884643554688
20
-13.534235954284668
10
16.984304428100586
20
-13.618009567260742
10
17.005044937133789
20
-13.702768325805664
10
17.022068023681641
20
-13.788351058959961
10
17.035341262817383
20
-13.874594688415527
10
17.044841766357422
20
-13.961335182189941
10
17.050548553466797
20
-14.048408508300781
10
17.052452087402344
20
-14.135647773742676
10
17.050548553466797
20
-14.222886085510254
10
17.044841766357422
20
-14.309958457946777
10
17.035341262817383
20
-14.396699905395508
10
17.022068023681641
20
-14.482943534851074
10
17.005044937133789
20
-14.568526268005371
10
16.984304428100586
20
-14.653285026550293
10
16.959884643554688
20
-14.737059593200684
10
16.93183708190918
20
-14.819686889648438
10
16.900211334228516
20
-14.90101432800293
10
16.865066528320312
20
-14.980884552001953
10
16.826473236083984
20
-15.059144020080566
10
16.784502029418945
20
-15.135647773742676
10
16.739234924316406
20
-15.210247039794922
10
16.690755844116211
20
-15.282800674438477
10
16.639158248901367
20
-15.353170394897461
10
16.584541320800781
20
-15.421222686767578
10
16.527006149291992
20
-15.486827850341797
10
16.466665267944336
20
-15.549860954284668
10
16.403633117675781
20
-15.610201835632324
10
16.338027954101562
20
-15.667736053466797
10
16.269973754882812
20
-15.722354888916016
10
16.199605941772461
20
-15.773952484130859
10
16.127052307128906
20
-15.822430610656738
10
16.052452087402344
20
-15.867698669433594
10
15.975948333740234
20
-15.909669876098633
10
15.897689819335938
20
-15.948262214660645
10
15.817819595336914
20
-15.983406066894531
10
15.736492156982422
20
-16.015031814575195
10
15.653863906860352
20
-16.043081283569336
10
15.570090293884277
20
-16.067499160766602
10
15.485331535339355
20
-16.088239669799805
10
15.399748802185059
20
-16.105262756347656
10
15.313504219055176
20
-16.118537902832031
10
15.226763725280762
20
-16.128036499023438
10
15.139690399169922
20
-16.133745193481445
10
15.052452087402344
20
-16.135648727416992
10
14.965212821960449
20
-16.133745193481445
10
14.878140449523926
20
-16.128036499023438
10
14.791399955749512
20
-16.118537902832031
10
14.705156326293945
20
-16.105262756347656
10
14.619572639465332
20
-16.088239669799805
10
14.53481388092041
20
-16.067499160766602
10
14.451041221618652
20
-16.043081283569336
10
14.368412017822266
20
-16.015031814575195
10
14.28708553314209
20
-15.983406066894531
10
14.207216262817383
20
-15.948262214660645
10
14.128954887390137
20
-15.909669876098633
10
14.052452087402344
20
-15.867698669433594
10
13.977852821350098
20
-15.822430610656738
10
13.905299186706543
20
-15.773952484130859
10
13.834929466247559
20
-15.722354888916016
10
13.766876220703125
20
-15.667736053466797
10
13.701271057128906
20
-15.610201835632324
10
13.638237953186035
20
-15.549860954284668
10
13.577897071838379
20
-15.486827850341797
10
13.520362854003906
20
-15.421222686767578
10
13.465744972229004
20
-15.353170394897461
10
13.414148330688477
20
-15.282800674438477
10
13.365669250488281
20
-15.210247039794922
10
13.320401191711426
20
-15.135647773742676
10
13.278429985046387
20
-15.059144020080566
10
13.239836692810059
20
-14.980884552001953
10
13.204692840576172
20
-14.90101432800293
10
13.173067092895508
20
-14.819686889648438
10
13.145018577575684
20
-14.737059593200684
10
13.120599746704102
20
-14.653285026550293
10
13.099860191345215
20
-14.568526268005371
10
13.082837104797363
20
-14.482943534851074
10
13.069562911987305
20
-14.396699905395508
10
13.060063362121582
20
-14.309958457946777
10
13.054355621337891
20
-14.222886085510254
10
13.052452087402344
20
-14.135647773742676
10
13.054355621337891
20
-14.048408508300781
10
13.060063362121582
20
-13.961335182189941
10
13.069562911987305
20
-13.874594688415527
10
13.082837104797363
20
-13.788351058959961
10
13.099860191345215
20
-13.702768325805664
10
13.120599746704102
20
-13.618009567260742
10
13.145018577575684
20
-13.534235954284668
10
13.173067092895508
20
-13.451606750488281
10
13.204692840576172
20
-13.370280265808105
10
13.239836692810059
20
-13.290410995483398
10
13.278429985046387
20
-13.212149620056152
10
13.320401191711426
20
-13.135647773742676
10
13.365669250488281
20
-13.06104850769043
10
13.414148330688477
20
-12.988494873046875
10
13.465744972229004
20
-12.918125152587891
10
13.520362854003906
20
-12.850071907043457
10
13.577897071838379
20
-12.784466743469238
10
13.638237953186035
20
-12.721434593200684
10
13.701271057128906
20
-12.661092758178711
10
13.766876220703125
20
-12.603558540344238
10
13.834929466247559
20
-12.548940658569336
10
13.905299186706543
20
-12.497343063354492
10
13.977852821350098
20
-12.448863983154297
10
14.052452087402344
20
-12.403595924377441
10
14.128954887390137
20
-12.361625671386719
10
14.207216262817383
20
-12.323032379150391
10
14.28708553314209
20
-12.287888526916504
10
14.368412017822266
20
-12.256261825561523
10
14.451041221618652
20
-12.228213310241699
10
14.53481388092041
20
-12.203795433044434
10
14.619572639465332
20
-12.18305492401123
10
14.705156326293945
20
-12.166031837463379
10
14.791399955749512
20
-12.15275764465332
10
14.878140449523926
20
-12.143258094787598
10
14.965212821960449
20
-12.137551307678223
10
15.052452087402344
20
-12.135646820068359
10
15.139690399169922
20
-12.137551307678223
10
15.226763725280762
20
-12.143258094787598
0
LWPOLYLINE
5
104
100
AcDbEntity
8
0
100
AcDbPolyline
90
144
70
1
43
0.0
10
-15.485331535339355
20
-12.18305492401123
10
-15.399748802185059
20
-12.166031837463379
10
-15.313504219055176
20
-12.15275764465332
10
-15.226763725280762
20
-12.143258094787598
10
-15.139690399169922
20
-12.137551307678223
10
-15.052452087402344
20
-12.135646820068359
10
-14.965212821960449
20
-12.137551307678223
10
-14.878140449523926
20
-12.143258094787598
10
-14.791399955749512
20
-12.15275764465332
10
-14.705156326293945
20
-12.166031837463379
10
-14.619572639465332
20
-12.18305492401123
10
-14.53481388092041
20
-12.203795433044434
10
-14.451041221618652
20
-12.228213310241699
10
-14.368412017822266
20
-12.256261825561523
10
-14.28708553314209
20
-12.287888526916504
10
-14.207216262817383
20
-12.323032379150391
10
-14.128954887390137
20
-12.361625671386719
10
-14.052452087402344
20
-12.403595924377441
10
-13.977852821350098
20
-12.448863983154297
10
-13.905299186706543
20
-12.497343063354492
10
-13.834929466247559
20
-12.548940658569336
10
-13.766876220703125
20
-12.603558540344238
10
-13.701271057128906
20
-12.661092758178711
10
-13.638237953186035
20
-12.721434593200684
10
-13.577897071838379
20
-12.784466743469238
10
-13.520362854003906
20
-12.850071907043457
10
-13.465744972229004
20
-12.918125152587891
10
-13.414148330688477
20
-12.988494873046875
10
-13.365669250488281
20
-13.06104850769043
10
-13.320401191711426
20
-13.135647773742676
10
-13.278429985046387
20
-13.212149620056152
10
-13.239836692810059
20
-13.290410995483398
10
-13.204692840576172
20
-13.370280265808105
10
-13.173067092895508
20
-13.451606750488281
10
-13.145018577575684
20
-13.534235954284668
10
-13.120599746704102
20
-13.618009567260742
10
-13.099860191345215
20
-13.702768325805664
10
-13.082837104797363
20
-13.788351058959961
10
-13.069562911987305
20
-13.874594688415527
10
-13.060063362121582
20
-13.961335182189941
10
-13.054355621337891
20
-14.048408508300781
10
-13.052452087402344
20
-14.135647773742676
10
-13.054355621337891
20
-14.222886085510254
10
-13.060063362121582
20
-14.309958457946777
10
-13.069562911987305
20
-14.396699905395508
10
-13.082837104797363
20
-14.482943534851074
10
-13.099860191345215
20
-14.568526268005371
10
-13.120599746704102
20
-14.653285026550293
10
-13.145018577575684
20
-14.737059593200684
10
-13.173067092895508
20
-14.819686889648438
10
-13.204692840576172
20
-14.90101432800293
10
-13.239836692810059
20
-14.980884552001953
10
-13.278429985046387
20
-15.059144020080566
10
-13.320401191711426
20
-15.135647773742676
10
-13.365669250488281
20
-15.210247039794922
10
-13.414148330688477
20
-15.282800674438477
10
-13.465744972229004
20
-15.353170394897461
10
-13.520362854003906
20
-15.421222686767578
10
-13.577897071838379
20
-15.486827850341797
10
-13.638237953186035
20
-15.549860954284668
10
-13.701271057128906
20
-15.610201835632324
10
-13.766876220703125
20
-15.667736053466797
10
-13.834929466247559
20
-15.722354888916016
10
-13.905299186706543
20
-15.773952484130859
10
-13.977852821350098
20
-15.822430610656738
10
-14.052452087402344
20
-15.867698669433594
10
-14.128954887390137
20
-15.909669876098633
10
-14.207216262817383
20
-15.948262214660645
10
-14.28708553314209
20
-15.983406066894531
10
-14.368412017822266
20
-16.015031814575195
10
-14.451041221618652
20
-16.043081283569336
10
-14.53481388092041
20
-16.067499160766602
10
-14.619572639465332
20
-16.088239669799805
10
-14.705156326293945
20
-16.105262756347656
10
-14.791399955749512
20
-16.118537902832031
10
-14.878140449523926
20
-16.128036499023438
10
-14.965212821960449
20
-16.133745193481445
10
-15.052452087402344
20
-16.135648727416992
10
-15.139690399169922
20
-16.133745193481445
10
-15.226763725280762
20
-16.128036499023438
10
-15.313504219055176
20
-16.118537902832031
10
-15.399748802185059
20
-16.105262756347656
10
-15.485331535339355
20
-16.088239669799805
10
-15.570090293884277
20
-16.067499160766602
10
-15.653863906860352
20
-16.043081283569336
10
-15.736492156982422
20
-16.015031814575195
10
-15.817819595336914
20
-15.983406066894531
10
-15.897689819335938
20
-15.948262214660645
10
-15.975948333740234
20
-15.909669876098633
10
-16.052452087402344
20
-15.867698669433594
10
-16.127052307128906
20
-15.822430610656738
10
-16.199605941772461
20
-15.773952484130859
10
-16.269973754882812
20
-15.722354888916016
10
-16.338027954101562
20
-15.667736053466797
10
-16.403633117675781
20
-15.610201835632324
10
-16.466665267944336
20
-15.549860954284668
10
-16.527006149291992
20
-15.486827850341797
10
-16.584541320800781
20
-15.421222686767578
10
-16.639158248901367
20
-15.353170394897461
10
-16.690755844116211
20
-15.282800674438477
10
-16.739234924316406
20
-15.210247039794922
10
-16.784502029418945
20
-15.135647773742676
10
-16.826473236083984
20
-15.059144020080566
10
-16.865066528320312
20
-14.980884552001953
10
-16.900211334228516
20
-14.90101432800293
10
-16.93183708190918
20
-14.819686889648438
10
-16.959884643554688
20
-14.737059593200684
10
-16.984304428100586
20
-14.653285026550293
10
-17.005044937133789
20
-14.568526268005371
10
-17.022068023681641
20
-14.482943534851074
10
-17.035341262817383
20
-14.396699905395508
10
-17.044841766357422
20
-14.309958457946777
10
-17.050548553466797
20
-14.222886085510254
10
-17.052452087402344
20
-14.135647773742676
10
-17.050548553466797
20
-14.048408508300781
10
-17.044841766357422
20
-13.961335182189941
10
-17.035341262817383
20
-13.874594688415527
10
-17.022068023681641
20
-13.788351058959961
10
-17.005044937133789
20
-13.702768325805664
10
-16.984304428100586
20
-13.618009567260742
10
-16.959884643554688
20
-13.534235954284668
10
-16.93183708190918
20
-13.451606750488281
10
-16.900211334228516
20
-13.370280265808105
10
-16.865066528320312
20
-13.290410995483398
10
-16.826473236083984
20
-13.212149620056152
10
-16.784502029418945
20
-13.135647773742676
10
-16.739234924316406
20
-13.06104850769043
10
-16.690755844116211
20
-12.988494873046875
10
-16.639158248901367
20
-12.918125152587891
10
-16.584541320800781
20
-12.850071907043457
10
-16.527006149291992
20
-12.784466743469238
10
-16.466665267944336
20
-12.721434593200684
10
-16.403633117675781
20
-12.661092758178711
10
-16.338027954101562
20
-12.603558540344238
10
-16.269973754882812
20
-12.548940658569336
10
-16.199605941772461
20
-12.497343063354492
10
-16.127052307128906
20
-12.448863983154297
10
-16.052452087402344
20
-12.403595924377441
10
-15.975948333740234
20
-12.361625671386719
10
-15.897689819335938
20
-12.323032379150391
10
-15.817819595336914
20
-12.287888526916504
10
-15.736492156982422
20
-12.256261825561523
10
-15.653863906860352
20
-12.228213310241699
10
-15.570090293884277
20
-12.203795433044434
0
ENDSEC
0
SECTION
2
OBJECTS
0
DICTIONARY
5
C
100
AcDbDictionary
3
ACAD_GROUP
350
D
3
ACAD_MLINESTYLE
350
17
0
DICTIONARY
5
D
100
AcDbDictionary
0
DICTIONARY
5
1A
330
C
100
AcDbDictionary
0
DICTIONARY
5
17
100
AcDbDictionary
0
ENDSEC
0
EOF
